# xmcd CD database file
#
# Track frame offsets:
#	150
#	32592
#	50980
#	77184
#	94247
#	108625
#	138002
#	155699
#	179584
#	199553
#	229023
#	248230
#	278976
#	291452
#	306101
#
# Disc length: 4361 seconds
#
# Revision: 0
# Processed by: cddbd v1.5.2PL0 Copyright (c) Steve Scherf et al.
# Submitted via: CDex 1.51
#
DISCID=dd11070f
DTITLE=Various Artist - Summer Improvised MJF
DYEAR=2004
DGENRE=Jazz
TTITLE0=Richard Iles Sextet/All Good Things
TTITLE1=Gary Boyle Trio w. Zoe Rahman/Gozo
TTITLE2=Steve Berry Group/Still
TTITLE3=Jon Thorne's Oedipus Complex/Manchester Road
TTITLE4=Ed Barnwell/Sonata for Jazz Piano
TTITLE5=Neil Yates' New Origins/Past Forward-The Gold Ring
TTITLE6=Orquestra Timbala/New International
TTITLE7=Stuart McCallum/Opus Hopeless
TTITLE8=Almeida Girl and Descarga/Barfly
TTITLE9=Java/For Emi
TTITLE10=Blueprint/Feel the Warmth
TTITLE11=Inside Outside/Tabasco Pete
TTITLE12=Mike Hope's Jazzmahoot/Strait Jacket
TTITLE13=Trio Halata/The Rocky Road to Dublin
TTITLE14=Bill Buckley and The Organauts/Pigtails
EXTD=YEAR: 2004
EXTT0=
EXTT1=
EXTT2=
EXTT3=
EXTT4=
EXTT5=
EXTT6=
EXTT7=
EXTT8=
EXTT9=
EXTT10=
EXTT11=
EXTT12=
EXTT13=
EXTT14=
PLAYORDER=
